<svg id="parent" height="400" width="400" viewbox="0 0 400 400" xmlns="http://www.w3.org/2000/svg">
    <g id="section1">
    <rect width="200" height="200" x="0" y="0" style="fill:#3e3e3e; stroke:#ffffff; stroke-width:0.5" />
    <line x1="10" y1="0" x2="10" y2="200" stroke="#ffffff" stroke-width="0.5" />
    <line x1="20" y1="0" x2="20" y2="200" stroke="#ffffff" stroke-width="0.5" />
    <line x1="30" y1="0" x2="30" y2="200" stroke="#ffffff" stroke-width="0.5" />
    <line x1="40" y1="0" x2="40" y2="200" stroke="#ffffff" stroke-width="0.5" />
    <line x1="50" y1="0" x2="50" y2="200" stroke="#ffffff" stroke-width="0.5" />
    <line x1="60" y1="0" x2="60" y2="200" stroke="#ffffff" stroke-width="0.5" />
    <line x1="70" y1="0" x2="70" y2="200" stroke="#ffffff" stroke-width="0.5" />
    <line x1="80" y1="0" x2="80" y2="200" stroke="#ffffff" stroke-width="0.5" />
    <line x1="90" y1="0" x2="90" y2="200" stroke="#ffffff" stroke-width="0.5" />
    <line x1="100" y1="0" x2="100" y2="200" stroke="#ffffff" stroke-width="0.5" />
    <line x1="110" y1="0" x2="110" y2="200" stroke="#ffffff" stroke-width="0.5" />
    <line x1="120" y1="0" x2="120" y2="200" stroke="#ffffff" stroke-width="0.5" />
    <line x1="130" y1="0" x2="130" y2="200" stroke="#ffffff" stroke-width="0.5" />
    <line x1="140" y1="0" x2="140" y2="200" stroke="#ffffff" stroke-width="0.5" />
    <line x1="150" y1="0" x2="150" y2="200" stroke="#ffffff" stroke-width="0.5" />
    <line x1="160" y1="0" x2="160" y2="200" stroke="#ffffff" stroke-width="0.5" />
    <line x1="170" y1="0" x2="170" y2="200" stroke="#ffffff" stroke-width="0.5" />
    <line x1="180" y1="0" x2="180" y2="200" stroke="#ffffff" stroke-width="0.5" />
    <line x1="190" y1="0" x2="190" y2="200" stroke="#ffffff" stroke-width="0.5" />
    <line y1="10" x1="0" y2="10" x2="200" stroke="#ffffff" stroke-width="0.5" />
    <line y1="20" x1="0" y2="20" x2="200" stroke="#ffffff" stroke-width="0.5" />
    <line y1="30" x1="0" y2="30" x2="200" stroke="#ffffff" stroke-width="0.5" />
    <line y1="40" x1="0" y2="40" x2="200" stroke="#ffffff" stroke-width="0.5" />
    <line y1="50" x1="0" y2="50" x2="200" stroke="#ffffff" stroke-width="0.5" />
    <line y1="60" x1="0" y2="60" x2="200" stroke="#ffffff" stroke-width="0.5" />
    <line y1="70" x1="0" y2="70" x2="200" stroke="#ffffff" stroke-width="0.5" />
    <line y1="80" x1="0" y2="80" x2="200" stroke="#ffffff" stroke-width="0.5" />
    <line y1="90" x1="0" y2="90" x2="200" stroke="#ffffff" stroke-width="0.5" />
    <line y1="100" x1="0" y2="100" x2="200" stroke="#ffffff" stroke-width="0.5" />
    <line y1="110" x1="0" y2="110" x2="200" stroke="#ffffff" stroke-width="0.5" />
    <line y1="120" x1="0" y2="120" x2="200" stroke="#ffffff" stroke-width="0.5" />
    <line y1="130" x1="0" y2="130" x2="200" stroke="#ffffff" stroke-width="0.5" />
    <line y1="140" x1="0" y2="140" x2="200" stroke="#ffffff" stroke-width="0.5" />
    <line y1="150" x1="0" y2="150" x2="200" stroke="#ffffff" stroke-width="0.5" />
    <line y1="160" x1="0" y2="160" x2="200" stroke="#ffffff" stroke-width="0.5" />
    <line y1="170" x1="0" y2="170" x2="200" stroke="#ffffff" stroke-width="0.5" />
    <line y1="180" x1="0" y2="180" x2="200" stroke="#ffffff" stroke-width="0.5" />
    <line y1="190" x1="0" y2="190" x2="200" stroke="#ffffff" stroke-width="0.5" />
    </g>
    <g id="section2" x="200" y="0" viewbox="0 0 200 0">
    <rect width="200" height="200" x="200" y="0"  style="fill:#3e3e3e; stroke:#ffffff; stroke-width:0.5" />
    <path d="m 210 0 l 0 200" stroke="#ffffff" stroke-width="0.5" />
    <path d="m 220 0 l 0 200" stroke="#ffffff" stroke-width="0.5" />
    <path d="m 230 0 l 0 200" stroke="#ffffff" stroke-width="0.5" />
    <path d="m 230 0 l 0 200" stroke="#ffffff" stroke-width="0.5" />
    <!-- <line x1="10" y1="0" x2="10" y2="200" stroke="#ffffff" stroke-width="0.5" />
    <line x1="20" y1="0" x2="20" y2="200" stroke="#ffffff" stroke-width="0.5" />
    <line x1="30" y1="0" x2="30" y2="200" stroke="#ffffff" stroke-width="0.5" />
    <line x1="40" y1="0" x2="40" y2="200" stroke="#ffffff" stroke-width="0.5" />
    <line x1="50" y1="0" x2="50" y2="200" stroke="#ffffff" stroke-width="0.5" />
    <line x1="60" y1="0" x2="60" y2="200" stroke="#ffffff" stroke-width="0.5" />
    <line x1="70" y1="0" x2="70" y2="200" stroke="#ffffff" stroke-width="0.5" />
    <line x1="80" y1="0" x2="80" y2="200" stroke="#ffffff" stroke-width="0.5" />
    <line x1="90" y1="0" x2="90" y2="200" stroke="#ffffff" stroke-width="0.5" />
    <line x1="100" y1="0" x2="100" y2="200" stroke="#ffffff" stroke-width="0.5" />
    <line x1="110" y1="0" x2="110" y2="200" stroke="#ffffff" stroke-width="0.5" />
    <line x1="120" y1="0" x2="120" y2="200" stroke="#ffffff" stroke-width="0.5" />
    <line x1="130" y1="0" x2="130" y2="200" stroke="#ffffff" stroke-width="0.5" />
    <line x1="140" y1="0" x2="140" y2="200" stroke="#ffffff" stroke-width="0.5" />
    <line x1="150" y1="0" x2="150" y2="200" stroke="#ffffff" stroke-width="0.5" />
    <line x1="160" y1="0" x2="160" y2="200" stroke="#ffffff" stroke-width="0.5" />
    <line x1="170" y1="0" x2="170" y2="200" stroke="#ffffff" stroke-width="0.5" />
    <line x1="180" y1="0" x2="180" y2="200" stroke="#ffffff" stroke-width="0.5" />
    <line x1="190" y1="0" x2="190" y2="200" stroke="#ffffff" stroke-width="0.5" />
    <line y1="10" x1="0" y2="10" x2="200" stroke="#ffffff" stroke-width="0.5" />
    <line y1="20" x1="0" y2="20" x2="200" stroke="#ffffff" stroke-width="0.5" />
    <line y1="30" x1="0" y2="30" x2="200" stroke="#ffffff" stroke-width="0.5" />
    <line y1="40" x1="0" y2="40" x2="200" stroke="#ffffff" stroke-width="0.5" />
    <line y1="50" x1="0" y2="50" x2="200" stroke="#ffffff" stroke-width="0.5" />
    <line y1="60" x1="0" y2="60" x2="200" stroke="#ffffff" stroke-width="0.5" />
    <line y1="70" x1="0" y2="70" x2="200" stroke="#ffffff" stroke-width="0.5" />
    <line y1="80" x1="0" y2="80" x2="200" stroke="#ffffff" stroke-width="0.5" />
    <line y1="90" x1="0" y2="90" x2="200" stroke="#ffffff" stroke-width="0.5" />
    <line y1="100" x1="0" y2="100" x2="200" stroke="#ffffff" stroke-width="0.5" />
    <line y1="110" x1="0" y2="110" x2="200" stroke="#ffffff" stroke-width="0.5" />
    <line y1="120" x1="0" y2="120" x2="200" stroke="#ffffff" stroke-width="0.5" />
    <line y1="130" x1="0" y2="130" x2="200" stroke="#ffffff" stroke-width="0.5" />
    <line y1="140" x1="0" y2="140" x2="200" stroke="#ffffff" stroke-width="0.5" />
    <line y1="150" x1="0" y2="150" x2="200" stroke="#ffffff" stroke-width="0.5" />
    <line y1="160" x1="0" y2="160" x2="200" stroke="#ffffff" stroke-width="0.5" />
    <line y1="170" x1="0" y2="170" x2="200" stroke="#ffffff" stroke-width="0.5" />
    <line y1="180" x1="0" y2="180" x2="200" stroke="#ffffff" stroke-width="0.5" />
    <line y1="190" x1="0" y2="190" x2="200" stroke="#ffffff" stroke-width="0.5" /> -->
    </g>
</svg>